<svg width="68" height="68" viewBox="0 0 68 68" fill="none" xmlns="http://www.w3.org/2000/svg">
<rect width="68" height="68" rx="34" fill="#E4AB28" fill-opacity="0.12"/>
<path d="M15 49.6602C15 51.5047 16.4953 53 18.3398 53H49.6602C51.5047 53 53 51.5047 53 49.6602V48.5469H15V49.6602Z" fill="#E4AB28"/>
<path d="M34 38.4531C35.2297 38.4531 36.2266 37.4563 36.2266 36.2266C36.2266 34.9969 35.2297 34 34 34C32.7703 34 31.7734 34.9969 31.7734 36.2266C31.7734 37.4563 32.7703 38.4531 34 38.4531Z" fill="#E4AB28"/>
<path d="M50.7734 26.207H46.2461V25.5547L48.4727 23.3282V21.5488C49.7657 21.0877 50.6992 19.7893 50.6992 18.3398C50.6992 16.4982 49.201 15 47.3594 15C45.5177 15 44.0195 16.4982 44.0195 18.3398C44.0195 19.7893 44.9531 21.0877 46.2461 21.5488V22.4062L44.0195 24.6328V26.207H37.3398V25.5547L39.5664 23.3282V21.5488C40.8594 21.0877 41.793 19.7893 41.793 18.3398C41.793 16.4982 40.2948 15 38.4531 15C36.6115 15 35.1133 16.4982 35.1133 18.3398C35.1133 19.7893 36.0468 21.0877 37.3398 21.5488V22.4062L35.1133 24.6328V26.207H32.8867V24.6328L30.6602 22.4062V21.5488C31.9532 21.0877 32.8867 19.7893 32.8867 18.3398C32.8867 16.4982 31.3885 15 29.5469 15C27.7052 15 26.207 16.4982 26.207 18.3398C26.207 19.7893 27.1406 21.0877 28.4336 21.5488V23.3282L30.6602 25.5547V26.207H23.9805V24.6328L21.7539 22.4062V21.5488C23.0469 21.0877 23.9805 19.7893 23.9805 18.3398C23.9805 16.4982 22.4823 15 20.6406 15C18.799 15 17.3008 16.4982 17.3008 18.3398C17.3008 19.7893 18.2343 21.0877 19.5273 21.5488V23.3282L21.7539 25.5547V26.207H17.2266V46.3203H50.7734V26.207ZM38.4531 36.2266C38.4531 36.6385 38.3788 37.0298 38.2736 37.4086L40.3405 38.6021L39.2272 40.5307L37.172 39.3439C36.6152 39.9103 35.9047 40.3157 35.1133 40.5215V42.9062H32.8867V40.5215C32.0953 40.3158 31.3848 39.9104 30.828 39.344L28.7728 40.5308L27.6595 38.6022L29.7264 37.4087C29.6212 37.0298 29.5469 36.6385 29.5469 36.2266C29.5469 35.8146 29.6212 35.4234 29.7264 35.0445L27.6595 33.851L28.7728 31.9224L30.828 33.1092C31.3848 32.5428 32.0953 32.1374 32.8867 31.9317V29.5469H35.1133V31.9316C35.9047 32.1373 36.6152 32.5427 37.172 33.1092L39.2272 31.9223L40.3405 33.851L38.2736 35.0444C38.3788 35.4234 38.4531 35.8146 38.4531 36.2266Z" fill="#E4AB28"/>
</svg>
