<svg width="68" height="68" viewBox="0 0 68 68" fill="none" xmlns="http://www.w3.org/2000/svg">
<rect width="68" height="68" rx="34" fill="#FCE4F0"/>
<path d="M14.0215 42.5892C14.0215 43.2238 14.5462 43.7382 15.1934 43.7382H52.8281C53.4753 43.7382 54 43.2238 54 42.5892V41.3521H14.0215V42.5892Z" fill="#DC227D"/>
<path d="M45.5625 49.7019H43.9626C42.2463 48.777 41.2373 47.9947 40.7984 47.2505C40.5791 46.8786 40.4663 46.4608 40.4115 46.0364H27.6035C27.381 47.7434 26.2428 48.4585 24.058 49.7019H22.459C20.9041 49.7626 20.9053 51.9399 22.459 52H45.5625C47.1173 51.9393 47.1162 49.762 45.5625 49.7019Z" fill="#DC227D"/>
<path d="M52.8281 16H15.1719C14.5247 16 14 16.5145 14 17.1491V39.054H54V17.1491C54 16.5145 53.4753 16 52.8281 16ZM21.1094 35.6068C21.0474 37.1314 18.827 37.1303 18.7656 35.6068V32.431C18.8276 30.9064 21.048 30.9076 21.1094 32.431V35.6068ZM25.7969 35.6068C25.7349 37.1314 23.5145 37.1303 23.4531 35.6068V29.4018C23.5151 27.8773 25.7355 27.8784 25.7969 29.4018V35.6068ZM27.1929 27.0734L22.8868 24.3493L20.0319 25.6217C18.5908 26.1971 17.673 24.2148 19.062 23.5296L22.4995 21.9975C22.8626 21.8356 23.2846 21.8659 23.6198 22.078L27.7913 24.7169L33.3146 20.8092C33.7203 20.5221 34.2673 20.5193 34.6762 20.8023L39.4158 24.083L47.2262 20.2539C48.6444 19.6261 49.6366 21.5743 48.2743 22.3094L39.8368 26.446C39.4507 26.6353 38.9896 26.6011 38.6369 26.357L34.0076 23.1528L28.5138 27.0396C28.1222 27.3167 27.5978 27.3296 27.1929 27.0734ZM30.4844 35.6068C30.4224 37.1314 28.202 37.1303 28.1406 35.6068V32.6958C28.2026 31.1712 30.423 31.1724 30.4844 32.6958V35.6068ZM35.1719 35.6068C35.1099 37.1314 32.8895 37.1303 32.8281 35.6068V28.676C32.8901 27.1514 35.1105 27.1526 35.1719 28.676V35.6068ZM39.8594 35.6068C39.7974 37.1314 37.577 37.1303 37.5156 35.6068V30.4743C37.5776 28.9497 39.798 28.9509 39.8594 30.4743V35.6068ZM44.5469 35.6068C44.4849 37.1314 42.2645 37.1303 42.2031 35.6068V33.0788C42.2651 31.5543 44.4855 31.5554 44.5469 33.0788V35.6068ZM49.2344 35.6068C49.1724 37.1314 46.952 37.1303 46.8906 35.6068V25.9546C46.9526 24.4301 49.173 24.4312 49.2344 25.9546V35.6068Z" fill="#DC227D"/>
</svg>
