<svg width="68" height="68" viewBox="0 0 68 68" fill="none" xmlns="http://www.w3.org/2000/svg">
<rect width="68" height="68" rx="34" fill="#E18345" fill-opacity="0.12"/>
<path fill-rule="evenodd" clip-rule="evenodd" d="M48.2877 12H23.158V56H48.2878C49.2308 56 50 55.1966 50 54.2114V13.7886C49.9999 12.8035 49.2308 12 48.2877 12ZM21.4458 12H18.7122C17.7691 12 17 12.8034 17 13.7886V54.2114C17 55.1965 17.7691 56 18.7122 56H21.4458V12ZM44.7117 28.9432C44.7117 33.8822 40.8788 37.8863 36.1509 37.8863C31.4227 37.8863 27.5901 33.8822 27.5901 28.9432C27.5901 24.0039 31.4227 20.0001 36.1509 20.0001C40.8788 20.0001 44.7117 24.0039 44.7117 28.9432ZM37.6032 24.0245C37.839 24.0245 38.0313 24.2254 38.0313 24.4717V26.9789H40.4313C40.6671 26.9789 40.8594 27.1797 40.8594 27.426V30.4605C40.8594 30.7068 40.6671 30.9077 40.4313 30.9077H38.0313V33.4149C38.0313 33.6611 37.839 33.862 37.6032 33.862H34.6985C34.4627 33.862 34.2704 33.6611 34.2704 33.4149V30.9077H31.8704C31.6346 30.9077 31.4424 30.7068 31.4424 30.4605V27.426C31.4424 27.1797 31.6346 26.9789 31.8704 26.9789H34.2704V24.4717C34.2704 24.2254 34.4627 24.0245 34.6985 24.0245H37.6032ZM27.5901 43.4126C27.1173 43.4126 26.734 43.0122 26.734 42.5183C26.734 42.0244 27.1173 41.624 27.5901 41.624H44.7117C45.1845 41.624 45.5678 42.0244 45.5678 42.5183C45.5678 43.0122 45.1845 43.4126 44.7117 43.4126H27.5901ZM27.5901 48.5772C27.1173 48.5772 26.734 48.1769 26.734 47.6829C26.734 47.189 27.1173 46.7886 27.5901 46.7886H44.7117C45.1845 46.7886 45.5678 47.189 45.5678 47.6829C45.5678 48.1769 45.1845 48.5772 44.7117 48.5772H27.5901Z" fill="#E08345"/>
</svg>
