<svg width="68" height="68" viewBox="0 0 68 68" fill="none" xmlns="http://www.w3.org/2000/svg">
<rect width="68" height="68" rx="34" fill="#DB406E" fill-opacity="0.12"/>
<path d="M31.0653 50.0287C31.0653 51.357 32.127 52.4376 33.4319 52.4376C34.7368 52.4376 35.7985 51.357 35.7985 50.0287C35.7985 48.7005 34.7368 47.6199 33.4319 47.6199C32.127 47.6199 31.0653 48.7005 31.0653 50.0287Z" fill="#DC406E"/>
<path d="M42.7962 41.1873C40.7608 41.1873 38.726 40.7442 36.8721 39.9016L29.0608 40.3626L29.6027 34.3386H20V45.2762H46.864V40.5955C45.5728 40.9801 44.2079 41.1873 42.7962 41.1873Z" fill="#DC406E"/>
<path d="M28.7627 50.0287C28.7627 49.15 28.9991 48.3268 29.4092 47.6199H20V48.9219C20 51.722 22.2381 54 24.989 54H30.8713C29.6024 53.1495 28.7627 51.6874 28.7627 50.0287Z" fill="#DC406E"/>
<path d="M28.4133 24.4948C28.979 20.0959 31.4541 16.2999 34.9617 14H24.989C22.238 14 20 16.278 20 19.0781V24.4948H28.4133Z" fill="#DC406E"/>
<path d="M29.363 31.9948C28.7096 30.3604 28.345 28.6095 28.2956 26.8385H20V31.9948H29.363Z" fill="#DC406E"/>
<path d="M37.4546 47.6199C37.8648 48.3268 38.1012 49.15 38.1012 50.0287C38.1012 51.6874 37.2615 53.1495 35.9926 54H41.875C44.626 54 46.864 51.722 46.864 48.9219V47.6199H37.4546Z" fill="#DC406E"/>
<path d="M42.7961 31.7684C44.0164 31.7684 45.0092 30.7579 45.0092 29.5158V27.5936H40.5831V29.5158C40.5831 30.7579 41.5759 31.7684 42.7961 31.7684Z" fill="#DC406E"/>
<path d="M32.0906 32.3876L31.5978 37.8652L37.3252 37.5272C39.0129 38.3891 40.8978 38.8435 42.7963 38.8435C49.5254 38.8435 55 33.2711 55 26.4218C55 19.5723 49.5254 14 42.7962 14C36.067 14 30.5923 19.5723 30.5923 26.4218C30.5923 28.5109 31.1095 30.5659 32.0906 32.3876ZM38.2805 23.3277C38.2805 20.7933 40.3062 18.7314 42.7961 18.7314C45.286 18.7314 47.3118 20.7933 47.3118 23.3277V29.5158C47.3118 32.0502 45.2861 34.1121 42.7962 34.1121C40.3063 34.1121 38.2805 32.0502 38.2805 29.5158V23.3277Z" fill="#DC406E"/>
<path d="M45.0093 25.2498V23.3277C45.0093 22.0856 44.0165 21.0752 42.7963 21.0752C41.576 21.0752 40.5832 22.0856 40.5832 23.3277V25.2498H45.0093Z" fill="#DC406E"/>
</svg>
