<svg width="22" height="22" viewBox="0 0 22 22" fill="none" xmlns="http://www.w3.org/2000/svg">
<path d="M0.324801 8.35764C1.78372 2.46063 7.74695 -1.13462 13.6422 0.324871C19.5375 1.78436 23.1344 7.74542 21.6754 13.6419C20.2165 19.5383 14.2544 23.1347 8.35803 21.6752C2.46165 20.2157 -1.13467 14.2541 0.324801 8.35764Z" fill="#FFD300"/>
<path d="M0.641113 7.30529H21.3595C20.7504 5.59446 19.7267 4.06134 18.3799 2.84314C17.0331 1.62495 15.4053 0.759697 13.6421 0.324813C8.10615 -1.04555 2.51058 2.0411 0.641113 7.30529Z" fill="#221C10"/>
<path d="M21.7627 13.261C21.7672 13.2376 21.7722 13.2142 21.7772 13.1908C21.7856 13.1496 21.7934 13.1089 21.8012 13.0683L21.8145 12.997C21.8223 12.9546 21.8301 12.9123 21.8374 12.87C21.8413 12.8488 21.8452 12.8276 21.8485 12.8059C21.8574 12.753 21.8658 12.7006 21.8736 12.6477L21.8786 12.6159C21.8879 12.5524 21.8968 12.4889 21.9053 12.4254L21.912 12.3753C21.9176 12.3285 21.9237 12.2823 21.9287 12.2355C21.9315 12.2132 21.9338 12.1909 21.936 12.1692C21.9404 12.1274 21.9449 12.0856 21.9488 12.0438L21.9555 11.9748C21.9594 11.9324 21.9627 11.8901 21.9661 11.8483L21.9711 11.7837C21.9744 11.7352 21.9778 11.6873 21.9805 11.6389C21.9805 11.6244 21.9805 11.6093 21.9805 11.5949C21.9839 11.5313 21.9867 11.4678 21.9895 11.4043C21.9895 11.3938 21.9895 11.3837 21.9895 11.3731C21.9895 11.3208 21.9928 11.2684 21.9939 11.2155C21.9939 11.196 21.9939 11.1759 21.9939 11.1559C21.9939 11.1124 21.9939 11.069 21.9939 11.0261V10.9609C21.9939 10.918 21.9939 10.8757 21.9939 10.8334C21.9939 10.8127 21.9939 10.7916 21.9939 10.771C21.9939 10.7242 21.9939 10.6779 21.99 10.6317C21.99 10.6155 21.99 10.5994 21.99 10.5832C21.9852 10.4573 21.9783 10.3318 21.9694 10.2067C21.9694 10.1905 21.9694 10.1738 21.9655 10.1577C21.9616 10.112 21.9583 10.0657 21.9538 10.02C21.9538 9.99999 21.9505 9.98051 21.9482 9.96045C21.9443 9.91756 21.9399 9.8741 21.9354 9.83121L21.9287 9.77216C21.9237 9.72648 21.9182 9.6808 21.9126 9.63513C21.9126 9.61897 21.9087 9.60337 21.9065 9.58721C21.8905 9.46243 21.8719 9.33821 21.8508 9.21455C21.8508 9.2034 21.8469 9.19283 21.8446 9.18113C21.8363 9.13155 21.8279 9.08141 21.819 9.03183L21.809 8.98058C21.8006 8.93602 21.7923 8.89146 21.7833 8.8469C21.78 8.82907 21.7761 8.81124 21.7728 8.79119C21.7633 8.74551 21.7533 8.69982 21.7432 8.65414C21.7399 8.6391 21.7371 8.62407 21.7338 8.60903C21.721 8.55333 21.7081 8.49762 21.6948 8.44191V8.4291C21.6809 8.3734 21.6664 8.31323 21.6513 8.25474C21.5678 7.93276 21.4703 7.61469 21.3589 7.30273H0.641039C0.519602 7.64477 0.414134 7.99552 0.324635 8.35501C-0.0305945 9.78359 -0.0946276 11.269 0.136351 12.7229L0.139694 12.7418C0.147492 12.7936 0.156406 12.8449 0.165319 12.8961C0.165319 12.9073 0.169218 12.9179 0.171446 12.929C0.179616 12.9769 0.188528 13.0248 0.198183 13.0727L0.20654 13.1156C0.215453 13.1607 0.224365 13.2064 0.233835 13.2515C0.237735 13.2682 0.241078 13.2855 0.244977 13.3028C0.25389 13.3457 0.26336 13.388 0.273387 13.4309C0.277844 13.451 0.2823 13.4705 0.287313 13.4905C0.296226 13.5306 0.305693 13.5707 0.31572 13.6103C0.322962 13.6409 0.330762 13.671 0.338561 13.7011C0.349702 13.746 0.361401 13.7911 0.373656 13.8364C0.385354 13.8805 0.397607 13.925 0.409862 13.969L0.426576 14.0247C0.438831 14.0665 0.451085 14.1089 0.463898 14.1506C0.469468 14.1701 0.475596 14.1896 0.481724 14.2063C0.494536 14.2481 0.507345 14.2899 0.520715 14.3311L0.539098 14.3868C0.553024 14.4286 0.566394 14.4704 0.580877 14.5122C0.587005 14.5305 0.593691 14.5495 0.599818 14.5679L0.643824 14.6932C0.647723 14.7027 0.651066 14.7127 0.654408 14.7222C0.663878 14.7484 0.672791 14.774 0.682818 14.7996H21.3143C21.3238 14.774 21.3321 14.7484 21.3416 14.7222C21.3644 14.6581 21.3867 14.5929 21.4085 14.5278L21.4151 14.5088C21.4435 14.4241 21.4708 14.3384 21.4981 14.2526C21.5015 14.2409 21.5054 14.2286 21.5093 14.2169C21.5338 14.1367 21.5572 14.0554 21.58 13.974L21.5951 13.9234C21.6218 13.8264 21.6474 13.7295 21.6714 13.6315C21.6875 13.568 21.702 13.5045 21.7165 13.4415C21.7215 13.4209 21.726 13.4008 21.7304 13.3808L21.7588 13.2504" fill="#E6392E"/>
</svg>
