<svg width="22" height="22" viewBox="0 0 22 22" fill="none" xmlns="http://www.w3.org/2000/svg">
<mask id="mask0_2_2301" style="mask-type:alpha" maskUnits="userSpaceOnUse" x="0" y="0" width="22" height="22">
<circle cx="11" cy="11" r="11" fill="#C4C4C4"/>
</mask>
<g mask="url(#mask0_2_2301)">
<path d="M8.3025 0H-5.33984V7.29647H8.3025V0Z" fill="#00237C"/>
<path d="M-1.59485 0H-5.33984V2.29464L12.9279 14.3569L17.3747 12.5259L-1.59485 0Z" fill="white"/>
<path d="M-5.33984 0.191406V1.76937L13.1704 13.9911L13.8955 12.8916L-5.33984 0.191406Z" fill="#CF142B"/>
<path d="M27.5232 0H13.8809V7.29647H27.5232V0Z" fill="#00237C"/>
<path d="M23.7803 0H27.5231V2.29464L9.25538 14.3569L4.80859 12.5259L23.7803 0Z" fill="white"/>
<path d="M27.523 0.191406V1.76937L9.01278 13.9911L8.2876 12.8916L27.523 0.191406Z" fill="#CF142B"/>
<path d="M27.5232 14.7036H13.8809V22.0001H27.5232V14.7036Z" fill="#00237C"/>
<path d="M23.7803 22H27.5231V19.7053L9.25538 7.64307L4.80859 9.4741L23.7803 22Z" fill="white"/>
<path d="M27.523 21.8085V20.2327L9.01278 8.00879L8.2876 9.10826L27.523 21.8085Z" fill="#CF142B"/>
<path d="M8.3025 14.7036H-5.33984V22.0001H8.3025V14.7036Z" fill="#00237C"/>
<path d="M-1.59485 22H-5.33984V19.7053L12.9279 7.64307L17.3747 9.4741L-1.59485 22Z" fill="white"/>
<path d="M-5.33984 21.8085V20.2327L13.1704 8.00879L13.8955 9.10826L-5.33984 21.8085Z" fill="#CF142B"/>
<path d="M27.523 7.29647H13.9083V0H8.21956V7.29647H-5.33984V14.5398H8.21956V22H13.9083V14.5398H27.523V7.29647Z" fill="white"/>
<path d="M27.523 8.77873H12.7004V0H9.42748V8.77873H-5.33984V13.0575H9.42748V22H12.7004V13.0575H27.523V8.77873Z" fill="#CF142B"/>
</g>
</svg>
