<svg width="527" height="518" viewBox="0 0 527 518" fill="none" xmlns="http://www.w3.org/2000/svg">
<path opacity="0.7" d="M361.465 0C325.319 0 290.44 12.9296 263.172 36.2026C235.27 12.9296 200.391 0 164.878 0C72.9271 0 0 81.4558 0 181.659C0 223.034 13.3171 263.115 38.049 296.731C51.3661 314.833 110.976 382.067 218.781 498.431L221.319 501.017C245.416 524.289 283.464 523.644 306.294 499.078L306.928 498.431C415.367 380.774 475.611 314.186 488.929 296.731C514.294 263.762 527.612 223.68 526.978 181.659C526.344 82.1022 453.417 0 361.465 0ZM263.172 96.3245C279.659 120.891 289.172 150.628 289.172 180.366C289.172 197.822 277.123 210.751 263.172 210.751C249.221 210.751 237.171 197.174 237.171 180.366C237.806 150.628 246.684 121.537 263.172 96.3245ZM457.222 271.52C445.173 287.035 384.929 354.268 277.758 469.34C270.148 477.744 258.099 477.744 249.854 470.633L249.221 469.987L247.952 468.694C141.415 354.268 81.8053 287.035 69.7564 271.52C50.7318 245.014 40.5855 213.337 40.5855 181.012C40.5855 102.143 96.3907 40.0814 164.878 40.0814C190.245 40.0814 215.611 49.132 235.27 65.2938C209.903 98.2641 196.587 138.345 197.22 180.366C197.22 219.801 226.392 252.124 263.172 252.124C299.953 252.124 329.123 219.801 329.123 180.366C329.123 138.992 315.806 98.2641 291.074 65.2938C311.368 49.7784 336.1 41.3743 361.465 41.3743C429.953 41.3743 485.759 103.436 485.759 180.366C486.392 213.337 476.246 245.66 457.222 271.52Z" fill="white"/>
</svg>
