<svg width="263" height="43" viewBox="0 0 263 43" fill="none" xmlns="http://www.w3.org/2000/svg">
<path d="M82.4077 33.3489V20.0522C82.4077 18.551 82.355 16.9961 82.1973 15.4948C82.0921 14.3689 81.7766 13.243 81.2507 12.1707C80.7773 11.2592 80.0411 10.5622 79.147 10.1333C78.0953 9.6507 76.8857 9.43625 75.7287 9.43625C74.7821 9.43625 73.8355 9.54348 72.9415 9.70432C72.2052 9.86516 71.469 10.1333 70.7328 10.4013C70.2069 10.6158 69.681 10.8839 69.2076 11.2056C68.7869 11.4736 68.524 11.6881 68.3662 11.849L68.1559 12.0098L68.261 12.2779C68.5766 13.243 68.7869 14.2081 68.9447 15.2267C69.1024 16.3527 69.1551 17.5322 69.1551 18.6582V33.2954H66.6307V20.0522C66.6307 18.551 66.5782 16.9961 66.4204 15.4948C66.3152 14.3153 65.9997 13.1893 65.4213 12.1707C64.9479 11.2592 64.159 10.5622 63.2651 10.1333C62.1606 9.6507 60.951 9.38263 59.7416 9.43625C58.3743 9.43625 57.0595 9.48986 55.6922 9.70432C54.9558 9.81155 54.2196 9.97241 53.536 10.1869L53.3256 10.2941V33.3489H50.8013V8.52477C51.6953 8.25669 52.9049 7.98861 54.3248 7.66692C56.2706 7.2916 58.269 7.13075 60.2675 7.18437C63.4228 7.18437 65.7368 8.09585 67.1041 9.97241L67.3144 10.2405L67.5773 10.026C67.7351 9.91879 68.0507 9.65071 68.524 9.38263C69.1024 9.00731 69.681 8.68562 70.312 8.41754C71.1009 8.04223 71.9424 7.77415 72.8363 7.55969C73.8881 7.2916 74.94 7.18437 76.0443 7.23798C77.622 7.18437 79.1997 7.45246 80.6722 8.09585C81.7766 8.632 82.7232 9.43625 83.3542 10.4549C84.038 11.5809 84.4587 12.8677 84.669 14.1544C84.8794 15.763 85.0371 17.3714 84.9846 18.9799V33.4026L82.4077 33.3489Z" fill="black"/>
<path d="M92.9786 42.9999C92.2423 42.9999 91.5061 42.8927 90.7698 42.6782C90.2965 42.5173 89.9809 42.4101 89.8232 42.3566L90.2965 40.3191C90.5068 40.3727 90.7172 40.48 91.0854 40.5872C91.7689 40.8017 92.4527 40.9089 93.1364 40.9089C94.0303 40.9089 94.9244 40.8017 95.7658 40.5872C96.5547 40.3727 97.2909 39.9974 97.922 39.4612C98.6056 38.8715 99.1841 38.2281 99.6048 37.4775C100.183 36.5123 100.657 35.4937 101.025 34.4214L101.077 34.2605L101.025 34.0996C99.973 32.0622 98.8686 29.864 97.8693 27.6121C96.8702 25.3603 95.871 23.1084 95.0296 20.8029C94.1355 18.551 93.3467 16.192 92.6104 13.94C91.9268 11.7954 91.3482 9.7044 90.8224 7.66699H93.5571C93.9251 9.22185 94.3458 10.9376 94.9244 12.7069C95.5028 14.5834 96.134 16.5672 96.8702 18.551C97.6065 20.5348 98.3952 22.6259 99.2368 24.7705C100.078 26.9151 101.077 29.0061 102.077 31.0435L102.445 31.7942L102.708 30.9899C103.444 28.8989 104.128 26.8615 104.706 25.0386C105.285 23.162 105.81 21.2855 106.284 19.4089C106.757 17.5323 107.23 15.6558 107.704 13.7256C108.124 11.9027 108.598 9.86524 109.071 7.72061H111.595C110.543 12.4924 109.334 17.157 108.019 21.6608C106.81 26.0037 105.337 30.2929 103.602 34.475C103.076 35.8154 102.392 37.1557 101.656 38.3889C101.077 39.4077 100.341 40.2655 99.4996 41.0161C98.7108 41.7132 97.7642 42.1956 96.765 42.5173C95.5028 42.839 94.2407 42.9999 92.9786 42.9999Z" fill="black"/>
<path d="M139.573 20.5349C139.573 22.465 139.311 24.3951 138.678 26.2182C138.153 27.8266 137.312 29.3278 136.208 30.561C135.156 31.7406 133.894 32.7056 132.473 33.349C129.423 34.6895 126.005 34.6895 122.955 33.349C121.535 32.7056 120.273 31.7406 119.221 30.561C118.116 29.2743 117.275 27.8266 116.749 26.2182C116.171 24.3951 115.855 22.465 115.855 20.5349C115.855 18.6047 116.118 16.6745 116.749 14.8516C117.275 13.2431 118.116 11.7418 119.221 10.5087C120.273 9.32912 121.535 8.36402 122.955 7.72063C126.005 6.38023 129.423 6.38023 132.473 7.72063C133.894 8.36402 135.156 9.32912 136.208 10.5087C137.312 11.7954 138.153 13.2967 138.678 14.8516C139.311 16.7282 139.573 18.6047 139.573 20.5349ZM136.102 20.5349C136.102 17.2106 135.366 14.5834 133.84 12.6533C131.053 9.22187 126.057 8.73934 122.692 11.581C122.324 11.9027 121.955 12.278 121.64 12.6533C120.115 14.5834 119.378 17.2106 119.378 20.5349C119.378 23.859 120.115 26.4862 121.64 28.4165C124.48 31.8478 129.476 32.3304 132.894 29.4351C133.262 29.1134 133.577 28.7917 133.894 28.4165C135.366 26.4862 136.102 23.859 136.102 20.5349Z" fill="black"/>
<path d="M146.725 8.2566C147.671 7.98852 148.987 7.66683 150.616 7.34513C152.615 6.96982 154.613 6.80898 156.612 6.86259C158.295 6.80898 159.977 7.13067 161.556 7.72044C162.818 8.2566 163.87 9.11446 164.711 10.1868C165.552 11.3663 166.078 12.6531 166.394 14.0471C166.761 15.6557 166.919 17.3177 166.919 18.9798V33.7777H163.659V20.0521C163.659 18.4436 163.553 16.8887 163.291 15.2803C163.08 14.1543 162.66 13.082 162.029 12.117C161.45 11.3127 160.661 10.6693 159.715 10.3476C158.557 9.97232 157.349 9.75785 156.139 9.81146C154.824 9.81146 153.456 9.86508 152.142 10.0795C151.405 10.1868 150.67 10.294 149.985 10.5621V33.7777H146.725V8.2566Z" fill="black"/>
<path d="M186.009 34.3144C184.168 34.368 182.381 33.9926 180.698 33.3492C179.226 32.7596 177.911 31.7945 176.86 30.5613C175.808 29.2745 175.019 27.8269 174.546 26.2184C173.967 24.3954 173.704 22.5189 173.757 20.6423C173.757 18.7122 174.019 16.7819 174.598 14.959C175.071 13.3506 175.912 11.8493 176.964 10.5625C178.016 9.32934 179.278 8.36425 180.698 7.72086C182.275 7.02385 183.958 6.70215 185.641 6.70215C186.957 6.70215 188.271 6.80939 189.585 7.07747C190.585 7.23831 191.532 7.56001 192.426 7.98893L191.584 10.8306C190.847 10.4553 190.112 10.1872 189.323 10.0263C188.219 9.81188 187.115 9.70465 185.957 9.70465C183.064 9.70465 180.909 10.6697 179.436 12.5463C177.964 14.4229 177.227 17.1036 177.227 20.5886C177.227 22.0363 177.385 23.484 177.753 24.9316C178.068 26.1647 178.595 27.2907 179.384 28.3095C180.172 29.2745 181.171 30.0251 182.275 30.5076C183.643 31.0974 185.116 31.3656 186.588 31.3119C187.798 31.3656 188.954 31.1511 190.112 30.8293C190.847 30.6148 191.532 30.3468 192.215 29.9714L192.899 32.8131C192.005 33.242 191.058 33.6174 190.06 33.8318C188.692 34.1535 187.325 34.3144 186.009 34.3144Z" fill="black"/>
<path d="M206.256 6.70205C207.729 6.64843 209.201 6.91652 210.568 7.45268C211.673 7.8816 212.672 8.57861 213.461 9.49008C214.198 10.4015 214.775 11.4203 215.091 12.5998C215.406 13.8866 215.617 15.1734 215.617 16.4601V33.1347C215.144 33.2956 214.671 33.4028 214.144 33.4564C213.513 33.5636 212.777 33.7245 211.936 33.8317C211.095 33.939 210.147 34.0997 209.149 34.1534C208.15 34.2071 207.098 34.2607 205.994 34.2607C204.732 34.2607 203.47 34.0998 202.207 33.7781C201.102 33.5101 200.103 33.0275 199.209 32.3305C198.367 31.6335 197.632 30.7756 197.211 29.7569C196.685 28.5774 196.422 27.2369 196.474 25.9502C196.422 24.6634 196.737 23.4302 197.263 22.2507C197.789 21.2319 198.578 20.3741 199.525 19.7307C200.577 19.0338 201.733 18.5512 202.995 18.283C204.416 17.9613 205.888 17.8006 207.36 17.8006C207.833 17.8006 208.308 17.8006 208.833 17.8541C209.359 17.9078 209.832 17.9613 210.358 18.0686C210.884 18.1758 211.253 18.2295 211.62 18.3367C211.884 18.3903 212.094 18.444 212.357 18.5512V16.9427C212.357 16.0312 212.304 15.1734 212.146 14.2619C212.04 13.404 211.726 12.5998 211.253 11.9028C210.778 11.2058 210.095 10.616 209.359 10.2407C208.36 9.75816 207.256 9.5437 206.151 9.59731C204.732 9.5437 203.259 9.70454 201.891 10.0262C200.944 10.2943 200.261 10.5088 199.84 10.6696L199.367 7.77437C200.208 7.39907 201.102 7.18459 201.997 7.02375C203.364 6.80929 204.784 6.70205 206.256 6.70205ZM206.519 31.3118C207.781 31.3118 208.885 31.2582 209.832 31.2045C210.674 31.151 211.463 31.0436 212.251 30.8829V21.5537C211.673 21.3392 211.095 21.1247 210.516 21.0175C209.412 20.803 208.308 20.6958 207.202 20.7495C206.361 20.7495 205.52 20.803 204.678 20.9102C203.837 21.0175 203.049 21.2856 202.26 21.661C201.523 22.0362 200.892 22.5724 200.471 23.2694C199.998 24.0736 199.735 24.9851 199.788 25.9502C199.788 26.808 199.946 27.6658 200.261 28.4701C200.577 29.1135 201.05 29.7033 201.629 30.0786C202.26 30.5075 202.995 30.8292 203.732 30.9901C204.678 31.2045 205.573 31.3118 206.519 31.3118Z" fill="black"/>
<path d="M232.761 6.80931C233.761 6.80931 234.812 6.91654 235.812 7.07739C236.495 7.18462 237.126 7.34546 237.81 7.61355L237.126 10.4552C236.601 10.2407 236.075 10.0799 235.496 10.0263C234.444 9.86541 233.34 9.75818 232.288 9.8118C231.131 9.8118 230.027 9.86541 228.923 10.1335C228.344 10.2407 227.765 10.4552 227.24 10.6697V33.7781H223.979V8.57863C225.084 8.09609 226.24 7.72078 227.45 7.4527C229.133 6.97016 230.92 6.7557 232.761 6.80931Z" fill="black"/>
<path d="M241.176 20.4813C241.124 18.444 241.492 16.3529 242.175 14.4228C242.754 12.8143 243.596 11.3667 244.752 10.0799C245.751 8.95393 247.013 8.09608 248.381 7.5063C249.696 6.97014 251.116 6.64844 252.588 6.64844C255.744 6.64844 258.32 7.72076 260.161 9.81178C262.002 11.9028 263 15.1734 263 19.5699C263 19.8379 263 20.1061 263 20.3741C263 20.6422 262.948 20.9102 262.948 21.1247H244.752C244.858 24.3417 245.647 26.808 247.119 28.5774C248.592 30.3467 250.906 31.2046 254.113 31.2046C255.533 31.2582 256.954 31.0436 258.32 30.6684C259.109 30.4539 259.845 30.1323 260.582 29.8106L261.161 32.6522C260.319 33.0811 259.424 33.4028 258.531 33.6173C257.058 33.9925 255.533 34.2071 254.009 34.1534C252.01 34.2071 250.064 33.8317 248.223 33.1347C246.699 32.4913 245.331 31.5262 244.279 30.293C243.227 29.0063 242.438 27.5586 242.017 25.9502C241.386 24.2345 241.176 22.3579 241.176 20.4813ZM259.582 18.3903C259.53 15.6023 258.899 13.4577 257.689 11.9564C256.479 10.4552 254.744 9.65094 252.536 9.65094C251.431 9.65094 250.379 9.86539 249.381 10.3479C248.486 10.8841 247.645 11.5275 247.013 12.3317C246.33 13.136 245.751 14.1011 245.436 15.1197C245.068 16.1921 244.805 17.318 244.752 18.444L259.582 18.3903Z" fill="black"/>
<path d="M29.9761 0C26.9785 0 24.086 1.07233 21.8247 3.0025C19.5108 1.07233 16.6183 0 13.6733 0C6.0478 0 0 6.75562 0 15.0661C0 18.4976 1.10437 21.8217 3.15538 24.6097C4.25976 26.111 9.20317 31.6871 18.1433 41.3379L18.3538 41.5524C20.3522 43.4825 23.5075 43.4289 25.4008 41.3916L25.4533 41.3379C34.4462 31.5799 39.4421 26.0573 40.5466 24.6097C42.6501 21.8754 43.7545 18.5511 43.702 15.0661C43.6493 6.80923 37.6016 0 29.9761 0ZM21.8247 7.98877C23.192 10.0262 23.9809 12.4925 23.9809 14.9589C23.9809 16.4065 22.9816 17.4788 21.8247 17.4788C20.6677 17.4788 19.6685 16.3528 19.6685 14.9589C19.7211 12.4925 20.4574 10.0798 21.8247 7.98877ZM37.9171 22.5188C36.9179 23.8055 31.9219 29.3816 23.0343 38.9252C22.4032 39.6222 21.404 39.6222 20.7202 39.0324L20.6677 38.9788L20.5625 38.8716C11.7275 29.3816 6.78406 23.8055 5.78485 22.5188C4.20716 20.3205 3.36573 17.6933 3.36573 15.0124C3.36573 8.47132 7.99362 3.32419 13.6733 3.32419C15.7769 3.32419 17.8805 4.07481 19.5108 5.41521C17.4071 8.14963 16.3028 11.4738 16.3553 14.9589C16.3553 18.2294 18.7745 20.9102 21.8247 20.9102C24.8749 20.9102 27.294 18.2294 27.294 14.9589C27.294 11.5274 26.1896 8.14963 24.1386 5.41521C25.8215 4.12843 27.8725 3.43142 29.9761 3.43142C35.6558 3.43142 40.2837 8.57855 40.2837 14.9589C40.3362 17.6933 39.4948 20.374 37.9171 22.5188Z" fill="url(#paint0_linear_2_3297)"/>
<defs>
<linearGradient id="paint0_linear_2_3297" x1="21.8359" y1="50.6241" x2="21.8359" y2="6.2945" gradientUnits="userSpaceOnUse">
<stop stop-color="#F0B428"/>
<stop offset="0.51" stop-color="#E96464"/>
<stop offset="1" stop-color="#E72282"/>
</linearGradient>
</defs>
</svg>
